<mxfile host="app.diagrams.net" modified="2024-07-05T04:10:27.466Z" agent="Mozilla/5.0 (Windows NT 10.0; Win64; x64) AppleWebKit/537.36 (KHTML, like Gecko) Chrome/126.0.0.0 Safari/537.36 Edg/126.0.0.0" version="24.6.0" etag="oQE0flpPEz-KWrmACxGa" type="github">
  <diagram name="Page-1" id="YLB2JInSM2PlgXRAe-ae">
    <mxGraphModel>
      <root>
        <mxCell id="0" />
        <mxCell id="1" parent="0" />
      </root>
    </mxGraphModel>
  </diagram>
</mxfile>
